<svg id="Layer_1" data-name="Layer 1" xmlns="http://www.w3.org/2000/svg" viewBox="0 0 122.41 184.08"><defs><style>.cls-1,.cls-2{fill:none;stroke-miterlimit:10;stroke-width:0.5px;}.cls-1{stroke:#231f20;stroke-linecap:round;}.cls-2{stroke:#000;}</style></defs><title>acoustics</title><path class="cls-1" d="M177.67,212" transform="translate(-81.17 -62.09)"/><path class="cls-2" d="M203.33,127.67l-3-23.67c-7.45-21.21-22.84-35.43-47.67-41.33-9.67-1.2-18,1.07-26,4C110.56,76.53,100.19,92.16,95,113c-4.31,13.12-2,28.41,4.33,45L122,195c-1.58,10,1.43,25.46,3,29.67,3.21,11.17,9.67,18,19,21,7.28.67,13.2,0,17.67-2,7.7-3.55,13.5-8.62,16-16.33l2-15.33" transform="translate(-81.17 -62.09)"/><path class="cls-2" d="M114.23,62.34C86.37,74.67,77.57,93.81,82.9,118" transform="translate(-81.17 -62.09)"/><circle class="cls-2" cx="65.16" cy="32.25" r="15.96"/></svg>