<svg id="Layer_1" data-name="Layer 1" xmlns="http://www.w3.org/2000/svg" viewBox="0 0 163.15 158.17"><defs><style>.cls-1{fill:none;stroke:#000;stroke-miterlimit:10;stroke-width:0.5px;}</style></defs><title>mechanic</title><polygon class="cls-1" points="69.58 157.92 61.92 137.92 53.92 133.92 31.92 143.58 17.25 128.92 25.58 107.25 22.58 99.92 0.25 89.58 0.25 68.25 21.92 60.25 25.58 53.25 15.92 30.58 30.92 16.25 52.25 24.25 60.25 21.25 69.58 0.25 90.92 0.25 101.25 21.25 108.58 24.25 130.25 15.58 144.58 28.58 136.92 51.58 140.25 58.92 162.9 68.92 162.9 88.92 141.58 99.25 137.92 106.58 146.58 126.25 131.25 142.25 109.92 134.25 101.92 137.25 92.58 157.92 69.58 157.92"/><circle class="cls-1" cx="81.58" cy="79.08" r="22.17"/></svg>