<?xml version="1.0" encoding="UTF-8" standalone="no"?>
<svg
   xmlns:dc="http://purl.org/dc/elements/1.1/"
   xmlns:cc="http://creativecommons.org/ns#"
   xmlns:rdf="http://www.w3.org/1999/02/22-rdf-syntax-ns#"
   xmlns:svg="http://www.w3.org/2000/svg"
   xmlns="http://www.w3.org/2000/svg"
   version="1.1"
   viewBox="0 0 163.15 158.17"
   data-name="Layer 1"
   id="Layer_1">
  <metadata
     id="metadata15">
    <rdf:RDF>
      <cc:Work
         rdf:about="">
        <dc:format>image/svg+xml</dc:format>
        <dc:type
           rdf:resource="http://purl.org/dc/dcmitype/StillImage" />
        <dc:title>mechanic</dc:title>
      </cc:Work>
    </rdf:RDF>
  </metadata>
  <defs
     id="defs4">
    <style
       id="style2">.cls-1{fill:none;stroke:#000;stroke-miterlimit:10;stroke-width:0.5px;}</style>
  </defs>
  <title
     id="title6">mechanic</title>
  <polygon
     id="polygon8"
     points="69.58 157.92 61.92 137.92 53.92 133.92 31.92 143.58 17.25 128.92 25.58 107.25 22.58 99.92 0.25 89.58 0.25 68.25 21.92 60.25 25.58 53.25 15.92 30.58 30.92 16.25 52.25 24.25 60.25 21.25 69.58 0.25 90.92 0.25 101.25 21.25 108.58 24.25 130.25 15.58 144.58 28.58 136.92 51.58 140.25 58.92 162.9 68.92 162.9 88.92 141.58 99.25 137.92 106.58 146.58 126.25 131.25 142.25 109.92 134.25 101.92 137.25 92.58 157.92 69.58 157.92"
     class="cls-1" />
  <circle
     id="circle10"
     r="22.17"
     cy="79.08"
     cx="81.58"
     class="cls-1" />
  <path
     id="path3706"
     d="m 66.160124,147.44739 -3.686165,-9.79367 -4.307269,-2.17576 -4.307269,-2.17576 -9.76718,4.34182 c -5.371949,2.38801 -10.370371,4.47012 -11.107604,4.62692 -0.995554,0.21174 -3.105149,-1.49145 -8.199502,-6.61989 l -6.859078,-6.90498 4.010678,-10.35817 c 2.205873,-5.697 3.992169,-10.82376 3.969546,-11.39279 -0.02262,-0.56904 -0.703433,-2.50094 -1.512913,-4.29311 L 22.921588,99.443495 11.868028,94.289653 0.81446822,89.135804 V 78.889371 68.642938 L 11.419913,64.744161 c 5.832994,-2.144328 10.680245,-4.00212 10.771668,-4.128426 1.18967,-1.643594 3.750343,-6.710599 3.732715,-7.386216 -0.01271,-0.487285 -2.105497,-5.711498 -4.65063,-11.609363 L 16.646153,30.896767 19.4537,27.992652 c 1.544151,-1.597262 4.847694,-4.723556 7.341206,-6.947318 l 4.53366,-4.043205 10.060616,3.763813 c 5.533339,2.070097 10.478447,3.763812 10.989129,3.763812 0.510681,0 2.595802,-0.638036 4.633602,-1.417857 l 3.705092,-1.417858 4.564642,-10.309517 4.564642,-10.3095167 10.406132,-0.00133 10.406138,-0.00133 5.008735,10.1475977 c 4.957626,10.04403 5.042946,10.163668 8.359796,11.72216 1.84309,0.866009 3.80346,1.578478 4.35638,1.583265 0.55293,0.0048 5.60763,-1.83536 11.23268,-4.089215 l 10.22736,-4.097917 2.17156,1.730016 c 1.19436,0.951509 4.36558,3.774787 7.04717,6.273951 l 4.87561,4.543934 -3.80406,11.398243 -3.80406,11.398244 1.9444,3.976323 1.9444,3.976324 11.0585,4.806133 11.0585,4.806131 0.18587,9.463056 0.18587,9.46305 -10.73146,5.373638 -10.73147,5.373631 -1.96023,3.88319 -1.96022,3.88319 4.25041,9.64414 4.25041,9.64413 -7.07468,7.58554 c -3.89108,4.17204 -7.41444,7.58838 -7.82968,7.59186 -0.41525,0.003 -5.32484,-1.69293 -10.91021,-3.76981 l -10.15522,-3.77614 -4.20555,1.6059 -4.20556,1.60589 -4.503791,10.0389 -4.503783,10.03891 -11.294973,0.17222 -11.294974,0.17222 z M 91.036317,99.717773 c 4.917352,-2.380445 8.3811,-5.812285 10.775703,-10.676422 1.92845,-3.91724 2.19841,-5.12454 2.20418,-9.857496 0.005,-4.537046 -0.30018,-6.05844 -1.92512,-9.580665 -2.107414,-4.568039 -5.903957,-8.525856 -10.563832,-11.012572 -2.517517,-1.343462 -3.874656,-1.555589 -9.952251,-1.555589 -6.53283,0 -7.291992,0.141137 -10.591727,1.969133 -8.836232,4.895118 -13.574138,14.969969 -11.573025,24.609278 1.570472,7.564922 7.786107,14.704414 14.792422,16.99108 4.412936,1.44026 12.956368,0.99021 16.83365,-0.886747 z"
     style="opacity:0;fill:#ffffff;fill-opacity:1;stroke:#2c3e50;stroke-width:0.67126727;stroke-miterlimit:4;stroke-dasharray:none;stroke-opacity:0.00392157" />
</svg>
