<svg xmlns="http://www.w3.org/2000/svg" xmlns:xlink="http://www.w3.org/1999/xlink" version="1.1" x="0px" y="0px" viewBox="0 0 100 125" enable-background="new 0 0 100 100" xml:space="preserve"><g><path d="M48.667,93.406c-8.309,0-16.183-3.197-22.769-9.246c-6.729-6.18-9.522-16.749-9.522-21.035   c0-5.583,1.065-9.561,4.958-18.506c4.135-9.504,24.721-36.676,25.595-37.828c0.757-0.997,2.43-0.997,3.187,0   c0.874,1.152,21.46,28.323,25.595,37.828C79.647,53.671,80.667,57.45,80.667,63c0,4.308-2.793,14.918-9.522,21.098   c-6.427,5.902-14.05,9.099-22.085,9.271C48.932,93.393,48.801,93.406,48.667,93.406z M48.521,11.328   C43.523,18.009,28.302,38.625,25,46.214c-3.927,9.026-4.625,12.277-4.625,16.911c0,3.559,2.484,12.815,8.228,18.09   c3.979,3.654,10.555,7.995,19.457,8.185c0.103-0.016,0.208-0.024,0.315-0.024c9.182,0,15.979-4.472,20.064-8.223   c5.743-5.274,8.228-14.573,8.228-18.152c0-4.617-0.669-7.69-4.626-16.786C68.738,38.624,53.519,18.009,48.521,11.328z"/></g></svg>
